{"title":"Shark Lake 2015 Movies 720p HDRip x264 AAC New +sample ~ ☻rDX☻","uid":12519811,"size":740395465,"categoryP":"video","categoryS":"movies","magnet":"?xt=urn:btih:5c40ff24c5fc7c85e0499c86354553208a1c8368&amp;dn=Shark+Lake+2015+Movies+720p+HDRip+x264+AAC+New+%2Bsample+%7E+%E2%98%BBrDX%E2%98%BB&amp;tr=udp%3A%2F%2Ftracker.leechers-paradise.org%3A6969&amp;tr=udp%3A%2F%2Fzer0day.ch%3A1337&amp;tr=udp%3A%2F%2Fopen.demonii.com%3A1337&amp;tr=udp%3A%2F%2Ftracker.coppersurfer.tk%3A6969&amp;tr=udp%3A%2F%2Fexodus.desync.com%3A6969","seeders":1,"leechers":0,"uploader":"basicssom","files":2,"time":1443850746,"description":"----------------------------------------------------------------\r\nShark Lake 2015 English Movies 720p HDRip x264 AAC New Source with sample ~ ☻rDX☻\r\n\r\nSCREEN SHOTS &amp; POSTER:\r\n \nhttp://doctorhosts.com/2015/10/SharkLake/11.html \nhttp://doctorhosts.com/2015/10/SharkLake/1.html \nhttp://doctorhosts.com/2015/10/SharkLake/2.html \nhttp://doctorhosts.com/2015/10/SharkLake/3.html \nhttp://doctorhosts.com/2015/10/SharkLake/4.html \nhttp://doctorhosts.com/2015/10/SharkLake/5.html \nhttp://doctorhosts.com/2015/10/SharkLake/6.html \nhttp://doctorhosts.com/2015/10/SharkLake/7.html \nhttp://doctorhosts.com/2015/10/SharkLake/8.html \nhttp://doctorhosts.com/2015/10/SharkLake/9.html \nhttp://doctorhosts.com/2015/10/SharkLake/10.html\r\n\r\nFormat                                   : Matroska\r\nFormat version                           : Version 4 / Version 2\r\nFile size                                : 699 MiB\r\nOverall bit rate                         : 1 063 Kbps\r\nMovie name                               : Shark Lake 2015 English Movies 720p HDRip x264 AAC New Source ~ rDX ~\r\n\r\nVideo\r\nID                                       : 1\r\nFormat                                   : AVC\r\nFormat/Info                              : Advanced Video Codec\r\nFormat profile                           :   \r\nFormat settings, CABAC                   : Yes\r\nFormat settings, ReFrames                : 4 frames\r\nCodec ID                                 : V_MPEG4/ISO/AVC\r\nBit rate                                 : 914 Kbps\r\nWidth                                    : 1 280 pixels\r\nHeight                                   : 714 pixels\r\nDisplay aspect ratio                     : 16:9\r\nFrame rate mode                          : Constant\r\nFrame rate                               : 23.976 fps\r\nColor space                              : YUV\r\nChroma subsampling                       : 4:2:0\r\nBit depth                                : 8 bits\r\nScan type                                : Progressive\r\nBits/(Pixel*Frame)                       : 0.042\r\nStream size                              : 601 MiB (86%)\r\nTitle                                    : ~ rDX ~\r\nDefault                                  : Yes\r\nForced                                   : No\r\n\r\nAudio\r\nID                                       : 2\r\nFormat                                   : AC-3\r\nFormat/Info                              : Audio Coding 3\r\nMode extension                           : CM (complete main)\r\nFormat settings, Endianness              : Big\r\nCodec ID                                 : A_AC3\r\nBit rate mode                            : Constant\r\nBit rate                                 : 128 Kbps\r\nChannel(s)                               : 2 channels\r\nChannel positions                        : Front: L R\r\nSampling rate                            : 48.0 KHz\r\nBit depth                                : 16 bits\r\nCompression mode                         : Lossy\r\nDelay relative to video                  : 11ms\r\nStream size                              : 84.1 MiB (12%)\r\nTitle                                    : ~ rDX ~\r\nDefault                                  : Yes\r\nForced                                   : No","torrent":{"xt":"urn:btih:5c40ff24c5fc7c85e0499c86354553208a1c8368","amp;dn":"Shark+Lake+2015+Movies+720p+HDRip+x264+AAC+New+%2Bsample+%7E+%E2%98%BBrDX%E2%98%BB","amp;tr":["udp%3A%2F%2Ftracker.leechers-paradise.org%3A6969","udp%3A%2F%2Fzer0day.ch%3A1337","udp%3A%2F%2Fopen.demonii.com%3A1337","udp%3A%2F%2Ftracker.coppersurfer.tk%3A6969","udp%3A%2F%2Fexodus.desync.com%3A6969"],"infoHash":"5c40ff24c5fc7c85e0499c86354553208a1c8368","infoHashBuffer":{"type":"Buffer","data":[92,64,255,36,197,252,124,133,224,73,156,134,53,69,83,32,138,28,131,104]},"announce":[],"urlList":[]}}